<?xml version="1.0" encoding="utf-8"?>
<!-- Generator: Adobe Illustrator 16.0.0, SVG Export Plug-In . SVG Version: 6.00 Build 0)  -->
<!DOCTYPE svg PUBLIC "-//W3C//DTD SVG 1.1//EN" "http://www.w3.org/Graphics/SVG/1.1/DTD/svg11.dtd">
<svg version="1.1" id="Layer_1" xmlns="http://www.w3.org/2000/svg" xmlns:xlink="http://www.w3.org/1999/xlink" x="0px" y="0px"
	 width="841.89px" height="595.28px" viewBox="0 0 841.89 595.28" enable-background="new 0 0 841.89 595.28" xml:space="preserve">
<g>
	<g>
		<path fill="#64BF16" d="M278.461,126.847c-47.359,47.754-71.04,104.881-71.04,171.383c0,66.703,23.681,123.73,71.04,171.093
			c25.949,25.735,54.862,44.397,86.727,56.032l81.84-81.843c-38.966-0.582-72.272-14.646-99.894-42.271
			c-28.414-28.415-42.626-62.652-42.626-102.713c0-39.665,14.212-73.905,42.626-102.714c27.344-27.729,60.531-41.889,99.524-42.559
			l-82.721-82.722C332.702,82.34,304.204,101.1,278.461,126.847z"/>
		<path fill="#64BF16" d="M551.061,194.674c0.396,0.387,0.803,0.747,1.203,1.141l68.377-68.375
			c-39.428-38.022-98-70.747-171.684-70.747l0.295-1.183c-11.979,0-23.646,0.786-35.018,2.341L551.061,194.674z"/>
		<path fill="#64BF16" d="M415.908,537.612c10.832,1.396,21.939,2.123,33.344,2.158c74.43,0,132.523-31.638,171.682-70.448
			l-68.375-68.375c-0.014,0.01-0.023,0.024-0.039,0.034l0.008,0.008L415.908,537.612z"/>
	</g>
	<g>
		<path fill="#FFFFFF" d="M363.938,70.534l82.721,82.722c0.967-0.019,1.92-0.067,2.889-0.067c39.121,0,72.949,13.849,101.514,41.485
			L414.234,57.851C396.746,60.239,379.979,64.468,363.938,70.534z"/>
		<path fill="#FFFFFF" d="M415.908,537.612l136.619-136.623l-0.008-0.008c-28.408,28.393-62.729,42.588-102.973,42.588
			c-0.85,0-1.678-0.043-2.52-0.058l-81.84,81.843C381.333,531.252,398.239,535.335,415.908,537.612z"/>
	</g>
	<path fill="#3172F4" d="M453.893,222.037c41.75,0,75.6,33.847,75.6,75.604c0,41.752-33.85,75.603-75.6,75.603
		c-41.759,0-75.605-33.851-75.605-75.603C378.287,255.884,412.134,222.037,453.893,222.037z"/>
	<line fill="none" x1="546.104" y1="394.487" x2="634.469" y2="482.854"/>
</g>
</svg>
